<?xml version="1.0" standalone="no"?>
<!DOCTYPE svg PUBLIC "-//W3C//DTD SVG 20010904//EN"
 "http://www.w3.org/TR/2001/REC-SVG-20010904/DTD/svg10.dtd">
<svg version="1.0" xmlns="http://www.w3.org/2000/svg"
 width="448.000000pt" height="448.000000pt" viewBox="0 0 448.000000 448.000000"
 preserveAspectRatio="xMidYMid meet">
<metadata>
Created by potrace 1.11, written by Peter Selinger 2001-2013
</metadata>
<g transform="translate(0.000000,448.000000) scale(0.100000,-0.100000)"
fill="#000000" stroke="none">
<path d="M1885 4473 c-556 -45 -952 -137 -1280 -297 -211 -103 -351 -220 -413
-346 l-27 -55 -3 -1515 c-2 -1155 0 -1525 9 -1559 24 -86 102 -182 220 -271
261 -195 721 -340 1294 -407 221 -26 897 -26 1110 0 562 69 958 188 1248 376
120 78 197 159 242 253 l35 74 -2 1524 -3 1525 -30 58 c-66 128 -194 236 -407
341 -304 150 -696 246 -1188 291 -148 13 -674 19 -805 8z m545 -323 c392 -16
702 -64 1006 -155 290 -88 554 -238 554 -315 0 -43 -99 -124 -238 -194 -164
-83 -475 -174 -750 -220 -131 -22 -193 -29 -441 -52 -124 -11 -586 -5 -756 10
-455 41 -863 146 -1131 292 -100 54 -184 127 -184 159 0 51 105 136 254 205
326 152 772 247 1257 269 96 4 183 8 194 9 11 1 117 -3 235 -8z m-1565 -1072
c268 -89 476 -133 824 -175 184 -22 881 -25 1056 -5 494 57 844 145 1128 285
l127 62 0 -261 c0 -255 -1 -262 -23 -295 -69 -103 -334 -231 -648 -314 -620
-162 -1419 -173 -2075 -26 -360 80 -701 239 -760 352 -11 22 -14 80 -14 286
l0 258 123 -60 c67 -33 185 -82 262 -107z m15 -965 c273 -92 560 -147 930
-179 233 -20 781 -15 990 10 237 29 459 69 635 116 124 33 336 112 443 165
l123 61 -3 -274 -3 -275 -57 -51 c-167 -151 -608 -300 -1068 -361 -215 -28
-375 -37 -630 -37 -425 0 -769 41 -1110 132 -298 80 -560 209 -627 309 -22 33
-23 40 -23 296 l0 262 123 -61 c67 -34 192 -85 277 -113z m-12 -956 c270 -90
511 -140 867 -179 191 -21 870 -17 1060 5 455 55 814 148 1083 282 l122 62 0
-261 c0 -300 1 -294 -92 -364 -188 -141 -555 -265 -972 -328 -432 -65 -971
-64 -1401 2 -488 75 -932 244 -1032 393 -22 33 -23 40 -23 295 l0 261 125 -61
c69 -34 187 -82 263 -107z"/>
</g>
</svg>
