<?xml version="1.0" encoding="utf-8"?>
<!-- Generator: Adobe Illustrator 16.0.0, SVG Export Plug-In . SVG Version: 6.00 Build 0)  -->
<!DOCTYPE svg PUBLIC "-//W3C//DTD SVG 1.1//EN" "http://www.w3.org/Graphics/SVG/1.1/DTD/svg11.dtd">
<svg version="1.1" id="Layer_1" xmlns="http://www.w3.org/2000/svg" xmlns:xlink="http://www.w3.org/1999/xlink" x="0px" y="0px"
	 width="1725px" height="655px" viewBox="0 0 1725 655" enable-background="new 0 0 1725 655" xml:space="preserve">
<g>
	<path fill="#48BAEB" d="M282.105,486.219c-0.493,1.923-2.404,2.873-5.715,2.873h-63.785c-3.843,0-7.182-1.677-10.044-5.03
		L97.222,350.076L67.84,378.002V481.94c0,4.755-2.401,7.151-7.155,7.151H11.24c-4.806,0-7.182-2.396-7.182-7.151V8.25
		c0-4.784,2.376-7.159,7.182-7.159h49.445c4.754,0,7.155,2.375,7.155,7.159v291.662L193.966,172.35
		c3.327-3.353,6.679-5.005,10.019-5.005h65.932c2.868,0,4.779,1.202,5.745,3.582c0.951,2.849,0.728,5-0.715,6.423L141.643,306.355
		l139.032,172.708C282.561,480.989,283.054,483.363,282.105,486.219"/>
	<path fill="#48BAEB" d="M540.488,489.092h-49.446c-5.271,0-7.908-2.396-7.908-7.151V471.88
		c-21.033,15.763-48.011,23.64-80.972,23.64c-30.076,0-56.152-9.276-78.117-27.943c-21.491-19.115-32.259-43.454-32.259-73.085
		c0-46.821,29.158-78.582,87.449-95.291c22.927-6.689,57.554-12.424,103.899-17.226c1.437-17.66-3.227-32.709-13.96-45.131
		c-10.757-12.409-26.406-18.623-46.958-18.623c-26.76,0-53.989,9.554-81.698,28.641c-4.286,2.403-7.404,1.91-9.291-1.426
		l-25.818-36.548c-2.402-2.855-1.651-6.208,2.152-10.007c36.803-25.329,74.999-38.003,114.654-38.003
		c30.594,0,56.626,7.182,78.117,21.514c31.533,21.004,47.307,54.687,47.307,101.031V481.94
		C547.64,486.695,545.235,489.092,540.488,489.092 M483.134,339.312c-46.808,4.784-78.833,10.999-96.032,18.632
		c-23.4,10.038-33.912,24.377-31.538,43.013c1.442,10.493,6.707,18.962,15.775,25.434c9.068,6.422,19.604,10.167,31.537,11.125
		c33.449,2.395,60.203-6.461,80.257-26.553V339.312z"/>
	<path fill="#48BAEB" d="M840.504,613.415c-26.038,26.974-62.955,40.493-110.712,40.493c-27.734,0-54.001-6.927-78.825-20.785
		c-5.27-3.354-11.491-7.772-18.642-13.254c-7.182-5.474-15.535-12.32-25.066-20.425c-3.364-2.881-3.605-6.454-0.739-10.758
		l33.684-33.673c1.454-1.423,3.34-2.149,5.744-2.149c1.899,0,3.576,0.727,5.019,2.149c26.753,26.744,52.78,40.159,78.118,40.159
		c57.798,0,86.692-30.127,86.692-90.319v-37.277c-22.451,18.643-52.313,27.977-89.56,27.977c-46.357,0-82.672-17.472-108.939-52.343
		c-22.914-30.558-34.387-69.021-34.387-115.364c0-43.928,10.986-81.224,32.964-111.776c25.804-36.801,62.341-55.203,109.647-55.203
		c35.83,0,65.925,9.333,90.275,27.957v-14.339c0-4.777,2.375-7.152,7.157-7.152h49.469c4.754,0,7.16,2.375,7.16,7.152v320.364
		C879.563,546.884,866.537,586.423,840.504,613.415 M815.776,269.091c-11.929-30.559-39.65-45.871-83.117-45.871
		c-55.888,0-83.85,34.89-83.85,104.625c0,38.712,9.337,66.897,27.961,84.571c13.846,13.858,31.761,20.786,53.736,20.786
		c44.89,0,73.34-15.282,85.269-45.882V269.091z"/>
	<path fill="#48BAEB" d="M1177.432,613.415c-26.043,26.974-62.99,40.493-110.719,40.493c-27.721,0-53.998-6.927-78.842-20.785
		c-5.266-3.354-11.473-7.772-18.625-13.254c-7.18-5.474-15.535-12.32-25.096-20.425c-3.354-2.881-3.574-6.454-0.727-10.758
		l33.689-33.673c1.424-1.423,3.34-2.149,5.746-2.149c1.896,0,3.574,0.727,5.012,2.149c26.758,26.744,52.799,40.159,78.115,40.159
		c57.793,0,86.688-30.127,86.688-90.319v-37.277c-22.441,18.643-52.289,27.977-89.588,27.977c-46.324,0-82.633-17.472-108.9-52.343
		c-22.943-30.558-34.385-69.021-34.385-115.364c0-43.928,10.979-81.224,32.961-111.776c25.775-36.801,62.355-55.203,109.619-55.203
		c35.854,0,65.926,9.333,90.293,27.957v-14.339c0-4.777,2.402-7.152,7.15-7.152h49.463c4.777,0,7.184,2.375,7.184,7.152v320.364
		C1216.471,546.884,1203.471,586.423,1177.432,613.415 M1152.674,269.091c-11.965-30.559-39.627-45.871-83.105-45.871
		c-55.918,0-83.852,34.89-83.852,104.625c0,38.712,9.334,66.897,27.934,84.571c13.877,13.858,31.771,20.786,53.76,20.786
		c44.91,0,73.299-15.282,85.264-45.882V269.091z"/>
	<path fill="#48BAEB" d="M1326.424,489.092h-49.455c-4.756,0-7.158-2.375-7.158-7.151V8.25c0-4.784,2.402-7.159,7.158-7.159h49.455
		c4.779,0,7.16,2.375,7.16,7.159v473.69C1333.584,486.717,1331.203,489.092,1326.424,489.092"/>
	<path fill="#48BAEB" d="M1686.85,343.622c0,4.777-2.402,7.181-7.18,7.181h-232.918c2.879,23.401,12.914,42.973,30.127,58.735
		c19.561,16.737,44.182,25.096,73.824,25.096c26.215,0,49.912-7.411,70.924-22.23c4.305-2.865,7.879-2.865,10.734,0l33.697,34.44
		c3.805,3.799,3.805,7.152,0,9.999c-34.424,25.826-74.303,38.677-119.688,38.677c-48.73,0-89.336-16.203-121.803-48.676
		c-31.521-32.041-47.311-72.882-47.311-122.579c0-46.822,15.508-86.47,46.58-118.941c28.674-29.621,65.947-44.445,111.775-44.445
		c43.486,0,80.037,15.535,109.658,46.58c30.568,32.023,44.654,72.138,42.305,120.388L1686.85,343.622z M1592.957,238.28
		c-16.26-14.794-35.822-22.198-58.734-22.198c-21.521,0-40.408,7.151-56.615,21.49c-16.264,14.331-26.553,32.954-30.855,55.875
		h172.756C1619.006,271.466,1610.17,253.082,1592.957,238.28"/>
	<polygon fill="#48BAEB" points="1671.148,164.467 1691.713,164.467 1691.713,168.293 1683.637,168.293 1683.637,189.844 
		1679.193,189.844 1679.193,168.293 1671.148,168.293 	"/>
	<polygon fill="#48BAEB" points="1694.588,164.467 1700.875,164.467 1707.867,184.321 1707.92,184.321 1714.766,164.467 
		1720.941,164.467 1720.941,189.844 1716.723,189.844 1716.723,170.266 1716.639,170.266 1709.596,189.844 1705.906,189.844 
		1698.893,170.266 1698.838,170.266 1698.838,189.844 1694.588,189.844 	"/>
</g>
</svg>
