<svg version="1.0" xmlns="http://www.w3.org/2000/svg" width="597.333" height="597.333" viewBox="0 0 448 448">
    <path fill="#f3f3f3" d="M188.5.7c-55.6 4.5-95.2 13.7-128 29.7-21.1 10.3-35.1 22-41.3 34.6l-2.7 5.5-.3 151.5c-.2 115.5 0 152.5.9 155.9 2.4 8.6 10.2 18.2 22 27.1 26.1 19.5 72.1 34 129.4 40.7 22.1 2.6 89.7 2.6 111 0 56.2-6.9 95.8-18.8 124.8-37.6 12-7.8 19.7-15.9 24.2-25.3l3.5-7.4-.2-152.4-.3-152.5-3-5.8c-6.6-12.8-19.4-23.6-40.7-34.1C357.4 15.6 318.2 6 269 1.5 254.2.2 201.6-.4 188.5.7zM243 33c39.2 1.6 70.2 6.4 100.6 15.5 29 8.8 55.4 23.8 55.4 31.5 0 4.3-9.9 12.4-23.8 19.4-16.4 8.3-47.5 17.4-75 22-13.1 2.2-19.3 2.9-44.1 5.2-12.4 1.1-58.6.5-75.6-1C135 121.5 94.2 111 67.4 96.4 57.4 91 49 83.7 49 80.5c0-5.1 10.5-13.6 25.4-20.5 32.6-15.2 77.2-24.7 125.7-26.9 9.6-.4 18.3-.8 19.4-.9 1.1-.1 11.7.3 23.5.8zM86.5 140.2c26.8 8.9 47.6 13.3 82.4 17.5 18.4 2.2 88.1 2.5 105.6.5 49.4-5.7 84.4-14.5 112.8-28.5l12.7-6.2v26.1c0 25.5-.1 26.2-2.3 29.5-6.9 10.3-33.4 23.1-64.8 31.4-62 16.2-141.9 17.3-207.5 2.6-36-8-70.1-23.9-76-35.2-1.1-2.2-1.4-8-1.4-28.6v-25.8l12.3 6c6.7 3.3 18.5 8.2 26.2 10.7zm1.5 96.5c27.3 9.2 56 14.7 93 17.9 23.3 2 78.1 1.5 99-1 23.7-2.9 45.9-6.9 63.5-11.6 12.4-3.3 33.6-11.2 44.3-16.5l12.3-6.1-.3 27.4-.3 27.5-5.7 5.1c-16.7 15.1-60.8 30-106.8 36.1-21.5 2.8-37.5 3.7-63 3.7-42.5 0-76.9-4.1-111-13.2-29.8-8-56-20.9-62.7-30.9-2.2-3.3-2.3-4-2.3-29.6v-26.2l12.3 6.1c6.7 3.4 19.2 8.5 27.7 11.3zm-1.2 95.6c27 9 51.1 14 86.7 17.9 19.1 2.1 87 1.7 106-.5 45.5-5.5 81.4-14.8 108.3-28.2l12.2-6.2v26.1c0 30 .1 29.4-9.2 36.4-18.8 14.1-55.5 26.5-97.2 32.8-43.2 6.5-97.1 6.4-140.1-.2-48.8-7.5-93.2-24.4-103.2-39.3-2.2-3.3-2.3-4-2.3-29.5v-26.1l12.5 6.1c6.9 3.4 18.7 8.2 26.3 10.7z"/>
</svg>